<?xml version="1.0" standalone="no"?>
<!DOCTYPE svg PUBLIC "-//W3C//DTD SVG 20010904//EN"
 "http://www.w3.org/TR/2001/REC-SVG-20010904/DTD/svg10.dtd">
<svg version="1.0" xmlns="http://www.w3.org/2000/svg"
 width="480.000000pt" height="480.000000pt" viewBox="0 0 480.000000 480.000000"
 preserveAspectRatio="xMidYMid meet">
<metadata>
Created by potrace 1.14, written by Peter Selinger 2001-2017
</metadata>
<g transform="translate(0.000000,480.000000) scale(0.100000,-0.100000)"
fill="#000000" stroke="none">
<path d="M1950 4589 c-76 -7 -155 -17 -200 -25 -14 -2 -43 -7 -65 -10 -31 -5
-191 -44 -315 -78 -132 -36 -398 -158 -560 -256 -129 -79 -166 -105 -284 -201
-311 -255 -431 -485 -435 -833 -1 -69 3 -154 9 -188 6 -35 13 -72 15 -83 5
-33 16 -79 22 -95 3 -8 7 -19 9 -25 1 -5 23 -66 49 -135 26 -69 49 -132 51
-140 2 -8 17 -62 34 -120 17 -58 32 -114 34 -125 14 -70 36 -195 40 -225 25
-168 26 -422 1 -565 -46 -270 -7 -486 120 -674 187 -277 587 -495 1020 -558
63 -10 348 -10 435 -1 79 8 247 32 299 43 166 34 226 47 233 52 5 3 24 7 41
10 58 9 456 123 532 152 33 13 89 32 105 36 20 4 189 64 215 76 11 4 67 26
125 48 352 133 525 230 713 401 57 52 82 77 149 153 56 61 164 232 211 335 44
94 101 253 112 311 6 34 23 120 31 156 14 63 13 429 0 515 -46 291 -169 567
-372 840 -145 196 -286 343 -533 556 -188 163 -582 413 -761 484 -30 12 -66
27 -80 33 -14 6 -27 11 -30 12 -3 0 -35 11 -71 23 -36 12 -74 24 -85 26 -10 2
-37 9 -59 15 -22 6 -51 12 -65 15 -14 2 -25 5 -25 6 0 1 -9 3 -20 5 -11 1 -38
6 -60 9 -22 4 -56 9 -75 11 -19 3 -53 8 -75 11 -58 9 -347 11 -435 3z"/>
</g>
</svg>
