<?xml version="1.0" standalone="no"?>
<!DOCTYPE svg PUBLIC "-//W3C//DTD SVG 20010904//EN"
 "http://www.w3.org/TR/2001/REC-SVG-20010904/DTD/svg10.dtd">
<svg version="1.0" xmlns="http://www.w3.org/2000/svg"
 width="1083.000000pt" height="1083.000000pt" viewBox="0 0 1083.000000 1083.000000"
 preserveAspectRatio="xMidYMid meet">
<metadata>
Created by potrace 1.14, written by Peter Selinger 2001-2017
</metadata>
<g transform="translate(0.000000,1083.000000) scale(0.100000,-0.100000)"
fill="#000000" stroke="none">
<path d="M5129 10816 c-2 -2 -50 -7 -107 -10 -92 -6 -326 -30 -392 -41 -14 -2
-56 -9 -95 -15 -132 -21 -372 -71 -475 -100 -19 -5 -84 -24 -145 -40 -143 -40
-338 -106 -495 -168 -151 -60 -179 -72 -388 -173 -90 -44 -167 -79 -172 -79
-5 0 -10 -4 -12 -8 -3 -8 -163 -99 -200 -114 -10 -4 -18 -13 -18 -19 0 -7 -3
-10 -6 -6 -11 11 -440 -278 -559 -377 -16 -14 -57 -47 -90 -73 -32 -27 -66
-55 -75 -63 -9 -8 -47 -42 -85 -75 -83 -72 -347 -334 -428 -425 -32 -36 -68
-76 -80 -90 -12 -14 -40 -47 -62 -75 -22 -27 -45 -55 -51 -62 -7 -7 -52 -65
-100 -130 -49 -65 -92 -119 -96 -121 -5 -2 -8 -8 -8 -13 0 -9 -37 -66 -50 -79
-21 -20 -191 -294 -253 -410 -16 -30 -34 -58 -39 -61 -5 -3 -9 -9 -9 -13 0 -3
-32 -72 -72 -153 -83 -171 -123 -258 -179 -398 -35 -86 -128 -340 -130 -355 0
-3 -2 -9 -4 -15 -9 -29 -58 -191 -60 -200 -1 -5 -16 -66 -34 -135 -17 -69 -33
-136 -36 -150 -43 -217 -54 -273 -59 -320 -3 -30 -8 -64 -11 -75 -5 -22 -11
-69 -19 -160 -3 -33 -8 -71 -10 -85 -32 -182 -25 -894 11 -1140 3 -19 9 -69
14 -110 6 -41 14 -100 20 -130 5 -30 12 -71 15 -90 3 -19 13 -69 21 -110 9
-41 18 -86 20 -100 3 -14 10 -43 16 -65 5 -22 12 -48 14 -57 9 -41 14 -58 39
-148 14 -52 28 -102 30 -110 2 -8 4 -16 5 -17 2 -2 3 -6 4 -10 1 -5 13 -42 26
-83 13 -41 24 -77 25 -80 1 -3 4 -12 7 -20 3 -8 27 -73 54 -145 26 -71 51
-134 56 -139 4 -6 8 -18 8 -28 0 -10 5 -18 10 -18 6 0 9 -3 8 -7 -4 -14 14
-57 85 -203 39 -80 71 -151 73 -158 1 -7 8 -20 15 -28 13 -16 80 -140 101
-187 7 -15 16 -27 20 -27 4 0 8 -5 8 -10 0 -6 12 -29 27 -53 14 -23 27 -44 27
-47 1 -6 121 -191 135 -207 6 -7 11 -14 11 -17 0 -5 119 -176 130 -186 3 -3
25 -32 49 -65 25 -33 47 -62 51 -65 3 -3 21 -25 40 -50 19 -25 41 -52 49 -61
9 -9 34 -38 56 -65 130 -159 530 -554 611 -604 13 -8 24 -18 24 -21 0 -4 31
-30 70 -60 38 -29 70 -57 70 -61 0 -4 4 -8 9 -8 8 0 87 -56 201 -143 17 -13
112 -76 218 -146 35 -22 68 -41 73 -41 5 0 9 -4 9 -10 0 -5 5 -10 10 -10 6 0
29 -12 53 -27 23 -15 44 -28 47 -28 3 0 34 -18 69 -38 36 -21 139 -75 230
-120 168 -83 186 -91 321 -147 41 -17 84 -35 95 -40 51 -24 381 -139 450 -156
6 -2 62 -17 125 -34 128 -36 181 -49 223 -55 16 -3 32 -7 37 -10 4 -3 25 -7
45 -11 21 -3 47 -8 59 -10 22 -5 151 -29 201 -38 403 -69 1030 -83 1463 -31
171 20 270 35 342 50 14 3 41 8 60 11 19 3 94 19 165 35 72 17 138 32 147 34
61 13 366 103 383 114 6 3 16 6 23 7 25 4 267 96 280 106 6 6 12 8 12 5 0 -17
466 205 636 303 47 28 90 50 95 50 5 0 9 4 9 8 0 5 18 17 40 27 22 10 40 22
40 27 0 4 5 8 10 8 11 0 146 86 168 107 6 6 21 15 32 18 11 3 20 11 20 16 0 5
4 9 10 9 9 0 214 150 286 209 17 15 53 44 80 66 114 93 249 218 389 360 141
143 195 201 295 320 23 28 54 64 69 81 14 18 35 44 46 60 11 15 25 32 30 38 6
6 26 33 45 61 39 55 59 81 78 100 6 8 12 16 12 20 0 8 53 79 63 83 4 2 7 7 7
12 0 7 134 225 157 255 10 12 53 92 68 122 5 13 13 23 18 23 4 0 7 4 7 9 0 4
29 63 64 130 35 66 62 121 59 121 -2 0 5 14 17 30 12 17 18 30 14 30 -3 0 -2
6 4 13 36 46 231 549 281 727 5 19 19 69 31 110 12 41 23 82 25 90 2 8 10 42
18 75 9 33 18 71 21 85 3 14 14 70 26 125 22 106 29 145 35 185 2 14 9 57 15
95 12 72 14 92 25 185 3 30 8 71 10 90 26 208 26 883 0 1041 -2 13 -6 53 -10
89 -7 71 -9 92 -20 160 -4 25 -8 56 -10 70 -2 14 -6 41 -10 60 -3 19 -8 46
-10 60 -5 29 -22 113 -30 150 -3 14 -8 39 -11 55 -8 47 -74 303 -96 375 -70
226 -148 440 -229 630 -56 129 -221 452 -287 560 -12 19 -25 42 -29 50 -3 8
-39 66 -80 128 -40 62 -73 117 -73 121 0 5 -7 12 -16 15 -8 3 -12 10 -9 16 3
5 2 10 -2 10 -5 0 -19 18 -33 40 -14 22 -28 40 -32 40 -5 0 -8 5 -8 10 0 14
-218 294 -285 367 -11 11 -45 50 -75 84 -98 114 -405 414 -517 506 -55 45
-107 89 -117 98 -6 6 -27 22 -46 35 -19 14 -46 34 -60 46 -35 31 -229 169
-331 236 -133 87 -362 219 -494 284 -66 32 -121 62 -123 67 -2 4 -9 7 -16 7
-7 0 -50 18 -95 40 -45 22 -87 40 -94 40 -7 0 -17 4 -23 9 -9 8 -239 101 -259
105 -5 1 -32 10 -60 20 -27 10 -57 21 -65 24 -8 3 -19 6 -25 7 -5 1 -32 10
-60 20 -27 9 -57 18 -65 20 -8 2 -35 10 -60 18 -42 14 -252 69 -310 81 -14 3
-47 11 -75 16 -27 6 -61 13 -75 16 -14 2 -47 9 -75 14 -27 6 -63 12 -80 15
-16 2 -41 6 -55 9 -23 4 -72 11 -160 22 -19 2 -48 6 -65 9 -16 2 -68 7 -115
10 -47 4 -96 9 -110 12 -28 5 -666 14 -671 9z"/>
</g>
</svg>
